<?xml version="1.0" encoding="UTF-8"?>
<svg version="1.1" xmlns="http://www.w3.org/2000/svg" width="1024" height="1024">
<path d="M0 0 C0 0.66 0 1.32 0 2 C-1.04075684 2.1451001 -2.08151367 2.2902002 -3.15380859 2.43969727 C-4.20615944 2.5864389 -4.20615944 2.5864389 -5.2797699 2.73614502 C-6.89488461 2.96133904 -8.51000743 3.18647496 -10.12513733 3.41156006 C-14.82333691 4.06648234 -19.52132065 4.72290594 -24.21899414 5.3815918 C-33.52113886 6.68475942 -42.82385885 7.98117834 -52.13302612 9.2333374 C-125.43463959 19.09576049 -199.68531102 31.46089877 -270 55 C-271.0715332 55.35094727 -272.14306641 55.70189453 -273.24707031 56.06347656 C-295.73109984 63.43694536 -318.24632912 71.8805714 -339.16210938 83.03027344 C-341.15265782 84.08054688 -343.16033942 85.0921072 -345.171875 86.1015625 C-378.89089049 103.20701353 -411.67928193 130.51493319 -423.81396484 167.47949219 C-432.83423176 197.66291583 -429.86154907 227.26628645 -414.83203125 255.1328125 C-397.02664187 286.56598988 -368.15895756 310.52800319 -337 328 C-336.14631836 328.48484863 -335.29263672 328.96969727 -334.41308594 329.46923828 C-320.52994258 337.31237506 -306.35230324 344.33439082 -291.875 351 C-291.10307312 351.35698975 -290.33114624 351.71397949 -289.53582764 352.08178711 C-279.18022784 356.85658583 -268.73245702 361.14573215 -258 365 C-258 365.66 -258 366.32 -258 367 C-264.74829691 366.46439249 -271.22286428 365.4773611 -277.8125 363.9375 C-278.74771484 363.72053467 -279.68292969 363.50356934 -280.64648438 363.2800293 C-317.92343814 354.45559081 -355.08385162 343.0683489 -389 325 C-389.70785645 324.62939453 -390.41571289 324.25878906 -391.14501953 323.87695312 C-406.1569501 315.98871682 -419.94369701 306.69155021 -432.8984375 295.7421875 C-435.0840743 293.86885211 -435.0840743 293.86885211 -438 292 C-438 291.34 -438 290.68 -438 290 C-438.56847656 289.75378906 -439.13695312 289.50757813 -439.72265625 289.25390625 C-456.04651235 280.26598548 -472.14096855 254.31307038 -478 237 C-478.41459656 233.3359375 -478.41459656 233.3359375 -478.4675293 229.375 C-478.48081772 228.64704727 -478.49410614 227.91909454 -478.50779724 227.16908264 C-478.54625699 224.77927488 -478.56205926 222.39007774 -478.57421875 220 C-478.5889648 218.31957892 -478.60384445 216.63915901 -478.61885071 214.95874023 C-478.64578616 211.43843769 -478.65937477 207.91834518 -478.66577148 204.39794922 C-478.67659173 199.92696407 -478.73816319 195.458263 -478.8124876 190.98794556 C-478.86131969 187.51475932 -478.8733138 184.0421034 -478.87583351 180.56860352 C-478.88298125 178.92298269 -478.90313526 177.27735682 -478.93753624 175.63208008 C-479.17404887 163.37760272 -476.65302221 155.28568462 -470 145 C-469.5352829 144.24946854 -469.0705658 143.49893707 -468.59176636 142.72566223 C-463.01131468 134.0201257 -456.15913793 126.41193235 -449 119 C-448.14921875 118.08605469 -447.2984375 117.17210937 -446.421875 116.23046875 C-431.5433894 100.6615145 -412.40971583 88.27597227 -393.02685547 79.07592773 C-390.8540598 78.04940853 -390.8540598 78.04940853 -389 76 C-387.18716903 75.24072989 -385.34857661 74.54254155 -383.5 73.875 C-378.93443943 72.17098773 -374.49855739 70.34705541 -370.07763672 68.29980469 C-310.57182214 40.84811473 -243.18977017 27.82628308 -179 17 C-178.18776978 16.86291626 -177.37553955 16.72583252 -176.53869629 16.58459473 C-131.09414971 8.96360403 -84.98953999 3.80081733 -39 1 C-37.34170166 0.89631104 -37.34170166 0.89631104 -35.64990234 0.79052734 C-23.76101718 0.06785092 -11.90894544 -0.13086753 0 0 Z " fill="#ECD931" transform="translate(478,308)"/>
<path d="M0 0 C2.5110472 0.23480875 4.98513793 0.25295426 7.50512695 0.1875 C11.78825948 0.07906627 11.78825948 0.07906627 14.00512695 1.1875 C16.06106905 1.48094053 18.1239558 1.72616914 20.1887207 1.94921875 C21.49292969 2.09576904 22.79713867 2.24231934 24.14086914 2.39331055 C25.19147522 2.51045914 25.19147522 2.51045914 26.26330566 2.62997437 C39.66987887 4.13730333 52.96551218 6.05272171 66.25512695 8.375 C67.39133987 8.57335953 67.39133987 8.57335953 68.55050659 8.77572632 C84.88114918 11.63879708 84.88114918 11.63879708 91.0715332 13.16015625 C91.80436523 13.33740234 92.53719727 13.51464844 93.29223633 13.69726562 C94.81375059 14.06686952 96.3345849 14.43928339 97.85473633 14.81445312 C98.95205078 15.07838867 98.95205078 15.07838867 100.0715332 15.34765625 C100.73096924 15.50886963 101.39040527 15.67008301 102.06982422 15.83618164 C104.33325131 16.30657491 104.33325131 16.30657491 108.00512695 16.1875 C108.00512695 16.8475 108.00512695 17.5075 108.00512695 18.1875 C109.14852539 18.249375 110.29192383 18.31125 111.4699707 18.375 C119.07745378 19.22967335 126.31072639 21.8543773 133.56762695 24.1875 C134.72888596 24.55714874 134.72888596 24.55714874 135.91360474 24.93426514 C156.47314632 31.48367792 176.50413773 38.92287154 196.00512695 48.1875 C196.82964355 48.57518555 197.65416016 48.96287109 198.50366211 49.36230469 C211.28558878 55.40791091 223.23594718 62.35965244 235.00512695 70.1875 C235.6196875 70.59355469 236.23424805 70.99960937 236.86743164 71.41796875 C262.20646603 88.24366184 287.36074746 109.18851644 299.00512695 138.1875 C299.00512695 139.1775 299.00512695 140.1675 299.00512695 141.1875 C299.66512695 141.5175 300.32512695 141.8475 301.00512695 142.1875 C300.01512695 142.5175 299.02512695 142.8475 298.00512695 143.1875 C297.31547852 142.29289063 296.62583008 141.39828125 295.9152832 140.4765625 C288.00175489 130.26843675 280.04601996 120.39980761 270.00512695 112.1875 C269.22806396 111.54192139 269.22806396 111.54192139 268.43530273 110.88330078 C254.21686474 99.09249837 239.07790756 89.25882416 223.00512695 80.1875 C222.33288086 79.8073877 221.66063477 79.42727539 220.96801758 79.03564453 C144.42830043 36.1726591 49.72278942 20.45799984 -44.28369141 17.68481445 C-46.66346173 17.62547158 -49.04301303 17.56012464 -51.42260742 17.49414062 C-70.09366298 16.99770502 -88.71157835 17.05523991 -107.36987305 17.9375 C-108.2856311 17.98040161 -109.20138916 18.02330322 -110.14489746 18.06750488 C-194.21762197 22.11227803 -279.4223891 38.89863324 -393.99487305 101.1875 C-394.90108398 101.90292969 -395.80729492 102.61835938 -396.7409668 103.35546875 C-422.53679111 124.02871802 -445.38904609 149.53985676 -449.54980469 183.67651367 C-450.84486552 197.09588635 -449.51825328 210.98262675 -446.99487305 224.1875 C-449.99487305 223.1875 -449.99487305 223.1875 -451.05737305 221.21875 C-451.36674805 220.3834375 -451.67612305 219.548125 -451.99487305 218.6875 C-452.33260742 217.77613281 -452.6703418 216.86476563 -453.01831055 215.92578125 C-453.50170898 214.57033203 -453.50170898 214.57033203 -453.99487305 213.1875 C-454.27588867 212.45917969 -454.5569043 211.73085938 -454.84643555 210.98046875 C-463.04508054 188.66193516 -460.67174604 161.52689006 -450.99487305 140.1875 C-443.96502734 125.30520935 -434.34508612 113.01031043 -422.99487305 101.1875 C-422.08479492 100.23617187 -421.1747168 99.28484375 -420.23706055 98.3046875 C-401.2135663 78.84760934 -377.76504398 63.81405062 -353.22143555 52.24316406 C-351.65934882 51.50254312 -350.10245626 50.75091431 -348.54956055 49.99121094 C-306.30239986 29.3247827 -260.16500057 16.49669132 -213.99487305 8.1875 C-212.71322266 7.95482422 -211.43157227 7.72214844 -210.11108398 7.48242188 C-180.34303383 2.17183199 -150.17694126 -1.07513661 -119.99487305 -2.8125 C-118.96813477 -2.87566406 -117.94139648 -2.93882812 -116.88354492 -3.00390625 C-78.33655184 -5.26995838 -38.40565095 -4.12626026 0 0 Z " fill="#0575C0" transform="translate(594.994873046875,359.8125)"/>
<path d="M0 0 C2.625 2.4375 2.625 2.4375 4.625 5.4375 C4.625 6.4275 4.625 7.4175 4.625 8.4375 C3.38615681 9.16517003 2.13331659 9.86904815 0.875 10.5625 C0.17890625 10.95695312 -0.5171875 11.35140625 -1.234375 11.7578125 C-3.375 12.4375 -3.375 12.4375 -5.4375 11.73828125 C-7.35452477 10.45124647 -8.95584053 9.09218367 -10.625 7.5 C-16.147524 2.69422911 -21.84231409 0.85532254 -29.15234375 1.15625 C-36.18159994 2.04571651 -42.42043884 5.39806413 -47.375 10.4375 C-54.45749707 20.81918557 -55.33747327 32.27869824 -53.375 44.4375 C-50.91809468 52.79341068 -46.07276004 59.2112788 -38.375 63.4375 C-29.23096036 66.69215818 -20.07613468 65.55909011 -11.375 61.4375 C-9.06081709 59.37582739 -9.06081709 59.37582739 -7.375 57.4375 C-6.715 57.4375 -6.055 57.4375 -5.375 57.4375 C-5.08625 56.839375 -4.7975 56.24125 -4.5 55.625 C-3.375 53.4375 -3.375 53.4375 -1.375 50.4375 C1.2265625 50.14453125 1.2265625 50.14453125 4.25 50.25 C5.25289062 50.27707031 6.25578125 50.30414062 7.2890625 50.33203125 C8.05992187 50.36683594 8.83078125 50.40164063 9.625 50.4375 C8.79239233 57.59792595 6.10692928 61.48499249 0.6484375 65.953125 C-11.10235093 74.57339451 -23.21656074 75.62131599 -37.375 74.4375 C-47.64725481 72.40155761 -55.09284566 66.56734679 -61.375 58.4375 C-62.035 57.7775 -62.695 57.1175 -63.375 56.4375 C-64.12436748 54.52307818 -64.80331634 52.58060057 -65.4375 50.625 C-65.77910156 49.58730469 -66.12070312 48.54960938 -66.47265625 47.48046875 C-69.8244716 36.17716069 -69.28090325 24.29307012 -63.98046875 13.6328125 C-62.53205275 11.16133811 -61.00356125 8.79325304 -59.375 6.4375 C-58.776875 5.53 -58.17875 4.6225 -57.5625 3.6875 C-42.75892596 -11.53903329 -16.59342521 -13.30680476 0 0 Z " fill="#0976C0" transform="translate(987.375,494.5625)"/>
<path d="M0 0 C1.69504564 1.96188646 3.04323984 3.77843583 4.4375 5.9375 C5.29421209 7.20191435 6.15513321 8.4634838 7.01953125 9.72265625 C7.48697754 10.40473145 7.95442383 11.08680664 8.43603516 11.78955078 C11.3607485 15.92323087 14.500436 19.89154736 17.625 23.875 C18.5675061 25.07950806 18.5675061 25.07950806 19.52905273 26.30834961 C21.01699912 28.20744722 22.50719851 30.10471801 24 32 C27.38565232 28.73231466 30.33534761 25.41171446 33.125 21.625 C34.27548828 20.07232422 34.27548828 20.07232422 35.44921875 18.48828125 C37.29482848 15.97180587 39.12712821 13.44588217 40.95703125 10.91796875 C41.70025635 9.89485596 41.70025635 9.89485596 42.45849609 8.85107422 C43.43292583 7.50797612 44.40340993 6.16200522 45.36962891 4.81298828 C48.77748801 0.111256 48.77748801 0.111256 51 -1 C53.3329866 -1.04022391 55.66706666 -1.04320247 58 -1 C58.84144007 21.67636241 59.13390034 44.30904198 59 67 C55.28732913 69.33760758 54.80554252 68.9611085 50 68 C49.67 49.85 49.34 31.7 49 13 C41.85532298 21.93084628 34.79141207 30.8150117 28 40 C27.001073 41.33413741 26.00149693 42.66779068 25 44 C21.00231947 42.4727962 19.27880585 40.04817861 16.8125 36.625 C16.02372991 35.54145375 15.23465842 34.45812684 14.4453125 33.375 C13.84251465 32.5396875 13.84251465 32.5396875 13.22753906 31.6875 C11.25175539 28.97138689 9.21555147 26.30229567 7.1875 23.625 C4.30533193 19.81360834 1.65918831 15.98878246 -1 12 C-1.33 30.48 -1.66 48.96 -2 68 C-7 69 -7 69 -10 67 C-10.36076355 64.21591187 -10.36076355 64.21591187 -10.34057617 60.62255859 C-10.34101425 59.96877731 -10.34145233 59.31499603 -10.34190369 58.6414032 C-10.33981081 56.47677925 -10.3164578 54.3129264 -10.29296875 52.1484375 C-10.28737453 50.64914371 -10.28310361 49.14984444 -10.28010559 47.65054321 C-10.26864298 43.70154723 -10.239164 39.75288148 -10.20599365 35.80401611 C-10.17532305 31.77563953 -10.16160672 27.74720965 -10.14648438 23.71875 C-10.11429532 15.81234833 -10.06308227 7.90621523 -10 0 C-3.62425402 -1.37273647 -3.62425402 -1.37273647 0 0 Z " fill="#111416" transform="translate(786,498)"/>
<path d="M0 0 C0.33 0.66 0.66 1.32 1 2 C1.88558594 1.96970703 2.77117188 1.93941406 3.68359375 1.90820312 C7.05332015 1.79424255 10.42311106 1.68273816 13.79296875 1.57275391 C15.23570849 1.52519457 16.67841875 1.47673011 18.12109375 1.42724609 C27.38961587 1.11009694 36.62825446 0.9658652 45.90234375 1.08007812 C48.91062793 1.22133185 48.91062793 1.22133185 51 0 C51.59732819 2.76264289 52 5.16032769 52 8 C37.48 8 22.96 8 8 8 C8 15.26 8 22.52 8 30 C18.56 30 29.12 30 40 30 C41 35 41 35 40 37 C29.44 37 18.88 37 8 37 C8 45.91 8 54.82 8 64 C22.52 63.67 37.04 63.34 52 63 C53.03864166 66.11592499 53.09036928 67.0262656 52 70 C49.552787 71.2236065 47.95054445 71.13338365 45.21484375 71.14526367 C43.72319702 71.15483345 43.72319702 71.15483345 42.20141602 71.16459656 C41.12432373 71.16570938 40.04723145 71.1668222 38.9375 71.16796875 C37.835271 71.17129715 36.73304199 71.17462555 35.59741211 71.17805481 C33.26383889 71.18312393 30.93025841 71.18546314 28.59667969 71.18530273 C25.01485346 71.18749093 21.43333425 71.20565169 17.8515625 71.22460938 C15.58854273 71.22754287 13.32552148 71.22952796 11.0625 71.23046875 C9.44686157 71.24124702 9.44686157 71.24124702 7.79858398 71.25224304 C6.80415283 71.24916641 5.80972168 71.24608978 4.78515625 71.24291992 C3.90738525 71.24434494 3.02961426 71.24576996 2.12524414 71.24723816 C0 71 0 71 -2 69 C-1.34 69 -0.68 69 0 69 C-0.16233124 68.29455551 -0.32466248 67.58911102 -0.49191284 66.86228943 C-1.01588927 63.91048839 -1.12701341 61.19973983 -1.12939453 58.20336914 C-1.13254669 57.06190933 -1.13569885 55.92044952 -1.13894653 54.74440002 C-1.1369223 53.52034958 -1.13489807 52.29629913 -1.1328125 51.03515625 C-1.13376923 49.76909042 -1.13472595 48.5030246 -1.13571167 47.19859314 C-1.1363917 44.52306692 -1.13505346 41.84763226 -1.13037109 39.17211914 C-1.12467994 35.75488901 -1.12795265 32.33773753 -1.13394356 28.92051029 C-1.1384417 25.64622286 -1.13528491 22.37194471 -1.1328125 19.09765625 C-1.13483673 17.87563004 -1.13686096 16.65360382 -1.13894653 15.39454651 C-1.13579437 14.24993454 -1.13264221 13.10532257 -1.12939453 11.92602539 C-1.12859894 10.92406631 -1.12780334 9.92210724 -1.12698364 8.88978577 C-0.9937751 5.85833892 -0.55750324 2.98025067 0 0 Z " fill="#0D0F11" transform="translate(663,496)"/>
<path d="M0 0 C-0.8125 2.9375 -0.8125 2.9375 -2 6 C-2.99 6.33 -3.98 6.66 -5 7 C-5.63808594 6.30777344 -5.63808594 6.30777344 -6.2890625 5.6015625 C-12.10359007 0.15873989 -21.46187564 -0.16567306 -29 0 C-33.75037416 0.88347445 -37.92867984 2.08850107 -41 6 C-41.78141665 11.46783889 -41.78141665 11.46783889 -39.3671875 16.1015625 C-36.56675254 18.34745589 -34.09146185 19.30284605 -30.6875 20.4375 C-29.45128906 20.8603125 -28.21507812 21.283125 -26.94140625 21.71875 C-24.3127643 22.58468645 -21.67435861 23.41089905 -19.02734375 24.21875 C-2.76704162 29.24414722 -2.76704162 29.24414722 2 37.4375 C3.76846283 43.73764884 3.5404532 48.3811229 0.3828125 54.078125 C-4.28232253 60.56187199 -11.28817731 63.72531856 -19 65 C-32.34186533 66.10415437 -43.64971932 63.18040821 -55 56 C-55.495 54.515 -55.495 54.515 -56 53 C-54.515 52.505 -54.515 52.505 -53 52 C-53 51.01 -53 50.02 -53 49 C-51.515 48.505 -51.515 48.505 -50 48 C-50 48.66 -50 49.32 -50 50 C-49.34 50.2475 -48.68 50.495 -48 50.75 C-45 52 -45 52 -43.34375 52.953125 C-35.31017888 57.51455945 -26.53606316 58.89605556 -17.5 56.9375 C-12.85599276 55.5326418 -9.75282456 54.17669933 -7 50 C-5.88200765 46.08702676 -5.56512146 44.00708715 -7.1875 40.25 C-10.43582951 36.21759095 -13.65006512 34.58583313 -18.578125 33.1328125 C-20.19654297 32.63974609 -20.19654297 32.63974609 -21.84765625 32.13671875 C-24.09939727 31.46714249 -26.35199254 30.80043177 -28.60546875 30.13671875 C-37.24633358 27.49616909 -44.77213021 24.73724729 -50 17 C-52.09382513 12.81234974 -51.37446033 8.17018854 -50 3.875 C-45.13175753 -3.12309855 -38.63157219 -6.00752024 -30.5 -7.75 C-19.65690746 -8.89466428 -8.97769068 -5.98512712 0 0 Z " fill="#121516" transform="translate(254,503)"/>
<path d="M0 0 C0.78375 0.680625 1.5675 1.36125 2.375 2.0625 C2.375 6.0625 2.375 6.0625 1.375 8.0625 C-2.11728564 7.47016887 -5.03257185 6.52594558 -8.25 5.0625 C-17.6706064 1.22135989 -25.54272397 1.63961609 -35 4.875 C-37.40693309 6.63391264 -37.9077754 8.1936016 -38.625 11.0625 C-38.94794477 14.12746649 -38.94794477 14.12746649 -37.625 17.0625 C-31.92281905 22.0101519 -24.56845764 23.96109794 -17.5 26.125 C-7.89662987 29.07853344 -0.55161051 31.42658184 5.375 40.0625 C6.85504046 45.39064565 6.52178732 50.01357428 4.375 55.0625 C0.77456813 61.04700162 -4.07834658 63.94479994 -10.625 66.0625 C-24.02380252 69.33582309 -37.17047397 66.55219695 -48.859375 59.66015625 C-49.44203125 59.13292969 -50.0246875 58.60570312 -50.625 58.0625 C-50.625 54.0625 -50.625 54.0625 -49.625 51.0625 C-45.20225229 51.4771326 -42.35157741 53.3553061 -38.78515625 55.80859375 C-30.9237697 60.37189408 -20.40408631 60.41505212 -11.6875 58.375 C-7.9640115 56.90520191 -5.99926613 55.53583657 -3.5 52.375 C-2.35326273 48.03378032 -2.81880079 44.43345957 -3.625 40.0625 C-10.86998873 37.11922333 -18.19163554 34.48866757 -25.625 32.0625 C-25.955 32.7225 -26.285 33.3825 -26.625 34.0625 C-26.97691406 33.63453125 -27.32882812 33.2065625 -27.69140625 32.765625 C-29.83619469 30.87647801 -32.07068445 29.82904641 -34.66552734 28.66625977 C-44.14051409 24.40190601 -44.14051409 24.40190601 -46.5 20.625 C-48.26930692 15.02219474 -48.12122789 11.11830127 -46.75 5.4375 C-43.51081065 0.29290516 -38.50851472 -2.54513835 -32.81640625 -4.5859375 C-21.76683652 -6.35859575 -9.78489867 -5.71727335 0 0 Z " fill="#121416" transform="translate(476.625,500.9375)"/>
<path d="M0 0 C0.33 0.66 0.66 1.32 1 2 C1.75977142 1.9830307 2.51954285 1.9660614 3.30233765 1.94857788 C10.45358667 1.79065627 17.60493907 1.64245006 24.75661278 1.50522423 C28.4335834 1.43432608 32.11039652 1.35963929 35.78710938 1.27636719 C39.3336514 1.19618147 42.8802631 1.12585225 46.4271431 1.06242752 C47.78203183 1.03645285 49.13685663 1.00689388 50.49158859 0.97373581 C52.38530166 0.92799106 54.27933275 0.89603354 56.17333984 0.86474609 C57.79216568 0.83143692 57.79216568 0.83143692 59.44369507 0.79745483 C62 1 62 1 64 3 C63.625 5.625 63.625 5.625 63 8 C54.14562255 10.95145915 44.32587561 8.37303502 35 8 C35.33 28.46 35.66 48.92 36 70 C35.34 70 34.68 70 34 70 C33.67 70.66 33.34 71.32 33 72 C30 72 30 72 26 70 C26 49.54 26 29.08 26 8 C17.09 8 8.18 8 -1 8 C-1 1 -1 1 0 0 Z " fill="#0F1113" transform="translate(540,496)"/>
<path d="M0 0 C3.16427974 0.11382301 4.06593266 0.35151335 6.75 2.25 C9.56335706 5.59260245 11.78289762 9.3927722 14.07421875 13.1015625 C16.65826874 17.18063587 19.3801562 21.15303402 22.125 25.125 C22.62209473 25.84469971 23.11918945 26.56439941 23.63134766 27.3059082 C24.81519759 29.01750096 26.00112282 30.72765802 27.1875 32.4375 C31.42807872 27.76695478 34.89319894 22.9701284 38.125 17.5625 C48.44191275 0.86076629 48.44191275 0.86076629 52.39453125 -0.09765625 C54.625 -0.125 54.625 -0.125 58.1875 0.4375 C57.5717532 3.69034798 56.45261578 5.76164325 54.4921875 8.4140625 C53.67041016 9.53675537 53.67041016 9.53675537 52.83203125 10.68212891 C52.24808594 11.46765137 51.66414063 12.25317383 51.0625 13.0625 C49.87195589 14.68717771 48.6818481 16.31217523 47.4921875 17.9375 C46.91952148 18.71609375 46.34685547 19.4946875 45.75683594 20.296875 C43.87299915 22.86648934 42.02010968 25.45612179 40.1875 28.0625 C39.713125 28.73539063 39.23875 29.40828125 38.75 30.1015625 C38.234375 30.87242187 37.71875 31.64328125 37.1875 32.4375 C36.55968628 33.19111816 36.55968628 33.19111816 35.91918945 33.95996094 C30.96989477 40.51899054 31.41001491 47.49300583 31.375 55.4375 C31.35181886 56.79821652 31.32644608 58.15889755 31.29882812 59.51953125 C31.24020607 62.82581491 31.20374062 66.13078182 31.1875 69.4375 C27.8125 70.0625 27.8125 70.0625 24.1875 70.4375 C22.1875 68.4375 22.1875 68.4375 21.96044922 65.54833984 C21.97092285 64.34387207 21.98139648 63.1394043 21.9921875 61.8984375 C21.99863281 60.59648438 22.00507813 59.29453125 22.01171875 57.953125 C22.02843071 56.57291405 22.04536061 55.19270571 22.0625 53.8125 C22.07252994 52.42448548 22.08165577 51.03646411 22.08984375 49.6484375 C22.11348137 46.24461974 22.14643133 42.84114494 22.1875 39.4375 C21.5275 39.1075 20.8675 38.7775 20.1875 38.4375 C19.39713331 37.13495969 18.66647919 35.79583039 17.96875 34.44140625 C15.26551158 29.43228959 12.07971188 24.93599022 8.6875 20.375 C4.9790622 15.36301619 1.43604131 10.39314715 -1.65429688 4.97094727 C-2.82630486 3.11821603 -2.82630486 3.11821603 -5.8125 2.4375 C-3.8125 0.4375 -3.8125 0.4375 0 0 Z " fill="#101214" transform="translate(312.8125,496.5625)"/>
<path d="M0 0 C0 0.66 0 1.32 0 2 C-2.71353837 2.37892989 -5.42708082 2.75783051 -8.140625 3.13671875 C-9.42720505 3.31638435 -9.42720505 3.31638435 -10.73977661 3.49967957 C-15.52644596 4.1680174 -20.31319939 4.83574498 -25.10009766 5.50244141 C-33.77612604 6.71106903 -42.45203403 7.9202347 -51.12536621 9.14808655 C-54.42996983 9.61566842 -57.73491956 10.08077369 -61.03991699 10.54556274 C-62.58965156 10.76420178 -64.13921467 10.98405976 -65.68859863 11.20516968 C-67.84145289 11.51228226 -69.99486047 11.81519138 -72.1484375 12.1171875 C-73.35677246 12.28847168 -74.56510742 12.45975586 -75.81005859 12.63623047 C-78.58058438 12.95217134 -81.21629687 13.07413586 -84 13 C-83.34 12.67 -82.68 12.34 -82 12 C-82 10.68 -82 9.36 -82 8 C-89.92 8 -97.84 8 -106 8 C-106 7.67 -106 7.34 -106 7 C-58.15748508 1.86293652 -58.15748508 1.86293652 -35 0.6875 C-34.25659363 0.648526 -33.51318726 0.609552 -32.74725342 0.56939697 C-21.82794529 0.01086225 -10.93208139 -0.07911375 0 0 Z " fill="#EDDE45" transform="translate(478,308)"/>
<path d="M0 0 C3.44868344 0.82367138 3.44868344 0.82367138 5.625 -0.5 C8.75189277 1.58459518 9.45486774 2.0796134 10.625 5.5 C10.83710411 8.22023518 10.75979253 10.75921862 10.625 13.5 C10.295 13.83 9.965 14.16 9.625 14.5 C9.955 14.5 10.285 14.5 10.625 14.5 C10.9375 17.6875 10.9375 17.6875 10.625 21.5 C8.125 24.4375 8.125 24.4375 5.625 26.5 C5.625 25.51 5.625 24.52 5.625 23.5 C4.965 23.5 4.305 23.5 3.625 23.5 C2.95976361 19.75804529 2.625 16.29563172 2.625 12.5 C3.285 12.5 3.945 12.5 4.625 12.5 C4.295 9.53 3.965 6.56 3.625 3.5 C3.295 3.83 2.965 4.16 2.625 4.5 C0.645 4.5 -1.335 4.5 -3.375 4.5 C-3.375 10.44 -3.375 16.38 -3.375 22.5 C-4.695 22.83 -6.015 23.16 -7.375 23.5 C-7.57100577 21.27156512 -7.75646569 19.04220107 -7.9375 16.8125 C-8.04191406 15.57113281 -8.14632812 14.32976562 -8.25390625 13.05078125 C-8.35993841 9.94164467 -8.14728525 7.49189028 -7.375 4.5 C-9.355 4.5 -11.335 4.5 -13.375 4.5 C-13.375 1.5 -13.375 1.5 -12.375 0.5 C-8.04884113 -0.25897524 -4.35237304 -0.62063089 0 0 Z " fill="#41525D" transform="translate(1013.375,485.5)"/>
<path d="M0 0 C-0.33 0.99 -0.66 1.98 -1 3 C-13.98196036 4.96103792 -26.80368367 6.3816573 -39.92138672 6.90283203 C-44.62454095 7.1226882 -49.31309208 7.56031004 -54 8 C-53 5 -53 5 -51.421875 3.8203125 C-48.0374856 2.67398706 -44.77604471 2.78834862 -41.25 2.875 C-40.55261719 2.88402344 -39.85523438 2.89304687 -39.13671875 2.90234375 C-37.42433042 2.92580112 -35.71211996 2.96166896 -34 3 C-34 2.34 -34 1.68 -34 1 C-22.64732258 0.20431798 -11.37981825 -0.12818318 0 0 Z " fill="#EADB39" transform="translate(458,310)"/>
<path d="M0 0 C8.43835047 0.35233196 14.95989804 2.30659869 22 7 C21.1875 9.9375 21.1875 9.9375 20 13 C19.01 13.33 18.02 13.66 17 14 C16.57460937 13.53851563 16.14921875 13.07703125 15.7109375 12.6015625 C10.34787337 7.58134265 2.88394975 7.55583636 -4.046875 7.2109375 C-7 7 -7 7 -11 6 C-7.7 5.34 -4.4 4.68 -1 4 C-0.67 2.68 -0.34 1.36 0 0 Z " fill="#191D1F" transform="translate(232,496)"/>
<path d="M0 0 C0.33 0 0.66 0 1 0 C1.01981934 0.62455078 1.03963867 1.24910156 1.06005859 1.89257812 C1.15616932 4.76209381 1.26549487 7.63096547 1.375 10.5 C1.4059375 11.48226562 1.436875 12.46453125 1.46875 13.4765625 C1.70047539 19.26969718 2.36952223 24.43251492 4 30 C4.33 29.34 4.66 28.68 5 28 C5.66 28 6.32 28 7 28 C7 26.35 7 24.7 7 23 C7.33 23 7.66 23 8 23 C8.08564209 23.78648926 8.17128418 24.57297852 8.25952148 25.38330078 C8.65043297 28.96406051 9.04394121 32.54453031 9.4375 36.125 C9.57220703 37.3625 9.70691406 38.6 9.84570312 39.875 C9.97783203 41.07382812 10.10996094 42.27265625 10.24609375 43.5078125 C10.42676392 45.15740967 10.42676392 45.15740967 10.61108398 46.84033203 C10.98920844 49.91232619 11.46778003 52.95128335 12 56 C9 55 9 55 7.9375 53.03125 C7.628125 52.1959375 7.31875 51.360625 7 50.5 C6.66226563 49.58863281 6.32453125 48.67726563 5.9765625 47.73828125 C5.65429688 46.83464844 5.33203125 45.93101562 5 45 C4.71898437 44.27167969 4.43796875 43.54335938 4.1484375 42.79296875 C-0.94208077 28.9354468 -0.24204613 14.5283532 0 0 Z " fill="#2D85B9" transform="translate(136,528)"/>
<path d="M0 0 C1.13980316 -0.00249756 2.27960632 -0.00499512 3.45394897 -0.00756836 C15.73833242 -0.02968226 27.94479434 0.02960659 40.1875 1.125 C40.1875 1.455 40.1875 1.785 40.1875 2.125 C32.98233265 3.07799186 25.93095655 3.27056401 18.66796875 3.2578125 C17.46689484 3.25913177 16.26582092 3.26045105 15.02835083 3.2618103 C11.14387385 3.26371788 7.25946958 3.25741191 3.375 3.25 C1.37812774 3.24865569 -0.61874453 3.24731141 -2.6156168 3.24598312 C-23.02775405 3.22720466 -43.41575497 2.91555521 -63.8125 2.125 C-63.8125 1.795 -63.8125 1.465 -63.8125 1.125 C-42.54184502 0.33243571 -21.28539246 0.01627055 0 0 Z " fill="#0669B0" transform="translate(540.8125,373.875)"/>
<path d="M0 0 C0 0.33 0 0.66 0 1 C-0.74121094 1.01030746 -1.48242188 1.02061493 -2.24609375 1.03123474 C-9.30492056 1.13008775 -16.36368088 1.23270882 -23.4223938 1.33933926 C-27.04947419 1.39400379 -30.67656295 1.44731902 -34.30371094 1.49731445 C-57.90153201 -0.19173323 -57.90153201 -0.19173323 -79.95605469 4.03833008 C-82.99549854 5.46837897 -85.61949938 5.11781782 -88.953125 4.9765625 C-89.61334656 4.95153656 -90.27356812 4.92651062 -90.95379639 4.90072632 C-93.05307889 4.81885175 -95.15137401 4.7221408 -97.25 4.625 C-98.67704359 4.56672689 -100.10412717 4.50942434 -101.53125 4.453125 C-105.02136694 4.31332364 -108.51075374 4.16021403 -112 4 C-112 3.67 -112 3.34 -112 3 C-74.47971503 -0.2983843 -37.65113099 -1.04744819 0 0 Z " fill="#2583C0" transform="translate(550,357)"/>
<path d="M0 0 C4.54347826 1.43478261 4.54347826 1.43478261 6.3125 3.625 C7.34011873 7.17495561 7.18163295 10.30679664 7 14 C6.67 14.33 6.34 14.66 6 15 C6.33 15 6.66 15 7 15 C7.3125 18.1875 7.3125 18.1875 7 22 C4.5 24.9375 4.5 24.9375 2 27 C2 26.01 2 25.02 2 24 C1.34 24 0.68 24 0 24 C-0.66523639 20.25804529 -1 16.79563172 -1 13 C-0.34 13 0.32 13 1 13 C0.9278125 12.38511719 0.855625 11.77023437 0.78125 11.13671875 C0.6884375 10.32847656 0.595625 9.52023437 0.5 8.6875 C0.4071875 7.88699219 0.314375 7.08648437 0.21875 6.26171875 C0.01558307 4.16111782 0 2.10998086 0 0 Z " fill="#4D606E" transform="translate(1017,485)"/>
<path d="M0 0 C0.33 0.66 0.66 1.32 1 2 C1.88558594 1.96970703 2.77117188 1.93941406 3.68359375 1.90820312 C7.05332015 1.79424255 10.42311106 1.68273816 13.79296875 1.57275391 C15.23570849 1.52519457 16.67841875 1.47673011 18.12109375 1.42724609 C27.38961587 1.11009694 36.62825446 0.9658652 45.90234375 1.08007812 C48.91062793 1.22133185 48.91062793 1.22133185 51 0 C51.59732819 2.76264289 52 5.16032769 52 8 C51.34 8 50.68 8 50 8 C50 6.35 50 4.7 50 3 C33.83 3 17.66 3 1 3 C1 7.62 1 12.24 1 17 C0.34 17 -0.32 17 -1 17 C-1.18451025 5.47835991 -1.18451025 5.47835991 0 0 Z " fill="#1D2227" transform="translate(663,496)"/>
<path d="M0 0 C0 0.33 0 0.66 0 1 C-1.98 1 -3.96 1 -6 1 C-6 1.66 -6 2.32 -6 3 C-7.134375 2.979375 -8.26875 2.95875 -9.4375 2.9375 C-12.81575674 2.58422523 -12.81575674 2.58422523 -14 4 C-15.9736483 4.30020259 -17.95656545 4.539859 -19.94140625 4.75390625 C-21.16537109 4.88603516 -22.38933594 5.01816406 -23.65039062 5.15429688 C-25.58688477 5.35635742 -25.58688477 5.35635742 -27.5625 5.5625 C-28.82642578 5.70107422 -30.09035156 5.83964844 -31.39257812 5.98242188 C-37.62845411 6.64414839 -43.72886437 7.18188666 -50 7 C-50 6.67 -50 6.34 -50 6 C-24.57210912 2.00069573 -24.57210912 2.00069573 -14.875 0.75 C-13.13863281 0.52570313 -13.13863281 0.52570313 -11.3671875 0.296875 C-7.54906426 -0.03975768 -3.83159817 -0.05030545 0 0 Z " fill="#1175BA" transform="translate(436,361)"/>
<path d="M0 0 C5.05485927 0.73094706 9.59903179 2.68380904 14.3125 4.5625 C15.56643555 5.0565332 15.56643555 5.0565332 16.84570312 5.56054688 C18.89863546 6.36998877 20.94997286 7.18323457 23 8 C23 8.66 23 9.32 23 10 C15.60510032 9.46512323 8.58021731 8.15463123 1.375 6.4375 C0.37082031 6.20353516 -0.63335937 5.96957031 -1.66796875 5.72851562 C-4.11334854 5.15792701 -6.55724069 4.58168567 -9 4 C-9 3.67 -9 3.34 -9 3 C-4.05 3.33 0.9 3.66 6 4 C4.02 3.34 2.04 2.68 0 2 C0 1.34 0 0.68 0 0 Z " fill="#ECDE47" transform="translate(197,665)"/>
<path d="M0 0 C-3.71834063 2.29265562 -7.62394666 2.64919403 -11.875 3.125 C-12.56980469 3.21136719 -13.26460938 3.29773438 -13.98046875 3.38671875 C-18.00829088 3.86459595 -21.94565712 4.08896677 -26 4 C-25 1 -25 1 -23.36328125 -0.17578125 C-16.3479106 -2.62246424 -7.23124519 -1.37738004 0 0 Z " fill="#EADA29" transform="translate(430,314)"/>
<path d="M0 0 C0.66 0.33 1.32 0.66 2 1 C0.1875 3 0.1875 3 -2 5 C-2.99 5 -3.98 5 -5 5 C-5.22042969 5.57363281 -5.44085938 6.14726562 -5.66796875 6.73828125 C-7.41581885 9.70603846 -9.52601975 11.17776526 -12.3125 13.1875 C-13.25738281 13.88230469 -14.20226562 14.57710938 -15.17578125 15.29296875 C-17.90675687 16.94364143 -19.86206019 17.6170456 -23 18 C-19.56864564 14.43013225 -16.05632875 11.39303607 -12.0625 8.4375 C-11.06347656 7.69371094 -10.06445312 6.94992187 -9.03515625 6.18359375 C-6.06495577 4.04673137 -3.05713053 2.00923184 0 0 Z " fill="#1577BC" transform="translate(211,429)"/>
<path d="M0 0 C4.62 0 9.24 0 14 0 C14 0.33 14 0.66 14 1 C12.02 1 10.04 1 8 1 C8.16371094 1.84820312 8.32742188 2.69640625 8.49609375 3.5703125 C9.00948445 7.0645531 9.09850739 10.34627574 9.0625 13.875 C9.05347656 15.02742188 9.04445313 16.17984375 9.03515625 17.3671875 C9.02355469 18.23601562 9.01195312 19.10484375 9 20 C8.01 20.33 7.02 20.66 6 21 C6 14.4 6 7.8 6 1 C4.02 1 2.04 1 0 1 C0 0.67 0 0.34 0 0 Z " fill="#191F26" transform="translate(1001,488)"/>
<path d="M0 0 C0.33 0 0.66 0 1 0 C2.33333333 8 3.66666667 16 5 24 C2 23 2 23 0.83203125 20.890625 C0.49558594 20.01921875 0.15914062 19.1478125 -0.1875 18.25 C-0.53167969 17.38890625 -0.87585938 16.5278125 -1.23046875 15.640625 C-2.01419245 12.95129902 -2.14520761 10.78398044 -2 8 C-1.34 8 -0.68 8 0 8 C0 5.36 0 2.72 0 0 Z " fill="#1A73B0" transform="translate(143,560)"/>
<path d="M0 0 C0.99 0 1.98 0 3 0 C5.60018816 3.90028225 5.15085514 7.47434569 5 12 C4.01 12 3.02 12 2 12 C2 14.31 2 16.62 2 19 C1.34 19.33 0.68 19.66 0 20 C0 13.4 0 6.8 0 0 Z " fill="#1B2128" transform="translate(1019,487)"/>
<path d="M0 0 C0.83595703 0.00451172 1.67191406 0.00902344 2.53320312 0.01367188 C4.58466649 0.02539452 6.63609273 0.04332797 8.6875 0.0625 C8.6875 0.7225 8.6875 1.3825 8.6875 2.0625 C-4.9457574 4.35862756 -4.9457574 4.35862756 -11.3125 4.0625 C-11.3125 3.4025 -11.3125 2.7425 -11.3125 2.0625 C-12.3025 1.7325 -13.2925 1.4025 -14.3125 1.0625 C-9.54157044 -0.17152862 -4.88780554 -0.05015112 0 0 Z " fill="#E2D94C" transform="translate(469.3125,307.9375)"/>
<path d="M0 0 C-0.33 1.98 -0.66 3.96 -1 6 C-1.33 6 -1.66 6 -2 6 C-2 4.35 -2 2.7 -2 1 C-16.19 1 -30.38 1 -45 1 C-45 0.67 -45 0.34 -45 0 C-39.23438773 -0.16776425 -33.46863657 -0.32830841 -27.70263672 -0.48217773 C-25.74131873 -0.53553259 -23.78005328 -0.59085676 -21.81884766 -0.64819336 C-18.99913866 -0.73028615 -16.17931632 -0.80528481 -13.359375 -0.87890625 C-12.48319519 -0.90594131 -11.60701538 -0.93297638 -10.70428467 -0.96083069 C-9.88373596 -0.98092697 -9.06318726 -1.00102325 -8.21777344 -1.02172852 C-7.49829529 -1.04171402 -6.77881714 -1.06169952 -6.03753662 -1.08229065 C-3.9014967 -0.99602172 -2.05010367 -0.58873192 0 0 Z " fill="#3F4247" transform="translate(716,560)"/>
<path d="M0 0 C0 0.66 0 1.32 0 2 C-2.31 2 -4.62 2 -7 2 C-7 2.66 -7 3.32 -7 4 C-9.37266827 4.53430316 -11.74706883 5.05262524 -14.125 5.5625 C-14.79015625 5.71396484 -15.4553125 5.86542969 -16.140625 6.02148438 C-20.40486743 6.92031979 -23.75924093 6.9974371 -28 6 C-25.05980031 4.38147153 -22.41463206 3.54586324 -19.12109375 2.9296875 C-18.20005859 2.75566406 -17.27902344 2.58164062 -16.33007812 2.40234375 C-15.37552734 2.22832031 -14.42097656 2.05429687 -13.4375 1.875 C-11.99987305 1.60236328 -11.99987305 1.60236328 -10.53320312 1.32421875 C-3.42921758 0 -3.42921758 0 0 0 Z " fill="#2482C0" transform="translate(384,368)"/>
<path d="M0 0 C0.66 0 1.32 0 2 0 C1.72285156 1.09957031 1.44570312 2.19914063 1.16015625 3.33203125 C-0.86723118 11.54667033 -2.63323362 19.50935841 -3 28 C-3.33 28 -3.66 28 -4 28 C-5.74342817 18.96587221 -4.67661548 8.10749496 0 0 Z " fill="#2382C0" transform="translate(148,522)"/>
<path d="M0 0 C1.32 0.33 2.64 0.66 4 1 C4 1.99 4 2.98 4 4 C4.66 4 5.32 4 6 4 C6.33 3.01 6.66 2.02 7 1 C7.67408308 2.26691507 8.33900497 3.53870749 9 4.8125 C9.556875 5.87404297 9.556875 5.87404297 10.125 6.95703125 C11 9 11 9 11 12 C11.66 12.33 12.32 12.66 13 13 C12.01 13.33 11.02 13.66 10 14 C8.33041937 11.85637773 6.66423643 9.71026458 5 7.5625 C4.52304687 6.95083984 4.04609375 6.33917969 3.5546875 5.70898438 C0 1.11328125 0 1.11328125 0 0 Z " fill="#2281C2" transform="translate(883,489)"/>
<path d="M0 0 C3.22793788 0.70694507 4.93804095 1.31945323 7 4 C7 4.99 7 5.98 7 7 C7.99 7 8.98 7 10 7 C10 6.01 10 5.02 10 4 C10.66 4 11.32 4 12 4 C13.85776765 7.13498292 14.20140476 9.37471432 14 13 C13.34 13 12.68 13 12 13 C12 12.01 12 11.02 12 10 C11.13375 9.835 10.2675 9.67 9.375 9.5 C4.72261002 7.43227112 2.73687107 4.17324313 0 0 Z " fill="#1379BF" transform="translate(875,480)"/>
<path d="M0 0 C5.66153846 2.46153846 5.66153846 2.46153846 7.375 5.1875 C7.58125 5.785625 7.7875 6.38375 8 7 C7.01 8.485 7.01 8.485 6 10 C1.25 9.25 1.25 9.25 -1 7 C0.32 6.01 1.64 5.02 3 4 C2.01 3.34 1.02 2.68 0 2 C0 1.34 0 0.68 0 0 Z " fill="#20272D" transform="translate(472,499)"/>
<path d="M0 0 C0 0.33 0 0.66 0 1 C-5.44730992 3.22597714 -10.57787577 3.42652499 -16.375 3.625 C-17.76525391 3.68300781 -17.76525391 3.68300781 -19.18359375 3.7421875 C-21.4555377 3.83587591 -23.72748596 3.92159348 -26 4 C-26 3.67 -26 3.34 -26 3 C-23.16793882 2.49168133 -20.33470266 1.99318495 -17.5 1.5 C-16.31277344 1.28537109 -16.31277344 1.28537109 -15.1015625 1.06640625 C-9.9876082 0.18613543 -5.18887598 -0.1428131 0 0 Z " fill="#2683C2" transform="translate(412,364)"/>
<path d="M0 0 C0.66 0.33 1.32 0.66 2 1 C2 1.99 2 2.98 2 4 C0.76115681 4.72767003 -0.49168341 5.43154815 -1.75 6.125 C-2.44609375 6.51945312 -3.1421875 6.91390625 -3.859375 7.3203125 C-6 8 -6 8 -8.203125 7.2421875 C-10 6 -10 6 -11 4 C-7.7 3.67 -4.4 3.34 -1 3 C-0.67 2.01 -0.34 1.02 0 0 Z " fill="#1F7AB8" transform="translate(990,499)"/>
<path d="M0 0 C-1.49271834 4.6138567 -3.73360028 7.49459542 -7 11 C-7.99 11.33 -8.98 11.66 -10 12 C-10 8.07290865 -8.72099538 7.1810287 -6.125 4.3125 C-5.04605469 3.10013672 -5.04605469 3.10013672 -3.9453125 1.86328125 C-2 0 -2 0 0 0 Z " fill="#177ABD" transform="translate(996,549)"/>
<path d="M0 0 C2.45205923 3.67808884 4.0012885 7.49058645 5.6875 11.5625 C6.02072266 12.34302734 6.35394531 13.12355469 6.69726562 13.92773438 C7.16229492 15.04825195 7.16229492 15.04825195 7.63671875 16.19140625 C7.92248779 16.87404541 8.20825684 17.55668457 8.50268555 18.26000977 C9 20 9 20 8 22 C3.23640174 15.25941432 0 8.37084509 0 0 Z " fill="#EFDD40" transform="translate(52,539)"/>
<path d="M0 0 C1.258125 0.0825 2.51625 0.165 3.8125 0.25 C3.4375 2.1875 3.4375 2.1875 2.8125 4.25 C1.8225 4.745 1.8225 4.745 0.8125 5.25 C0.8125 4.26 0.8125 3.27 0.8125 2.25 C-3.18250618 3.6197164 -5.98759492 5.50722422 -9.1875 8.25 C-8.55974433 6.89791086 -7.88330267 5.56836295 -7.1875 4.25 C-6.81625 3.5075 -6.445 2.765 -6.0625 2 C-3.79282144 -0.11836666 -3.01967179 0 0 0 Z " fill="#2C353B" transform="translate(367.1875,496.75)"/>
<path d="M0 0 C3.82118677 0.54588382 7.36378667 1.73155349 11 3 C11 3.66 11 4.32 11 5 C7.7 4.67 4.4 4.34 1 4 C1 3.34 1 2.68 1 2 C0.34 1.67 -0.32 1.34 -1 1 C-0.67 0.67 -0.34 0.34 0 0 Z " fill="#E4D74B" transform="translate(209,670)"/>
<path d="M0 0 C0.99 0.33 1.98 0.66 3 1 C2.67 1.66 2.34 2.32 2 3 C1.34 3 0.68 3 0 3 C0 3.66 0 4.32 0 5 C-0.61875 5.268125 -1.2375 5.53625 -1.875 5.8125 C-4.2995233 6.95556848 -4.2995233 6.95556848 -6 10 C-6.99 9.67 -7.98 9.34 -9 9 C-6.03 6.03 -3.06 3.06 0 0 Z " fill="#1174B9" transform="translate(174,459)"/>
<path d="M0 0 C4.60853797 0.72008406 8.67237409 2.31295939 13 4 C11.4375 5.125 11.4375 5.125 9 6 C5.25 5.125 5.25 5.125 2 4 C2 3.01 2 2.02 2 1 C1.34 0.67 0.68 0.34 0 0 Z " fill="#187EC2" transform="translate(753,393)"/>
<path d="M0 0 C4.62 0 9.24 0 14 0 C14 0.33 14 0.66 14 1 C12.2508503 1.33776684 10.50063855 1.67003671 8.75 2 C7.28820312 2.2784375 7.28820312 2.2784375 5.796875 2.5625 C3 3 3 3 -1 3 C-0.67 2.01 -0.34 1.02 0 0 Z " fill="#1A7CC2" transform="translate(379,387)"/>
<path d="M0 0 C0.33 0 0.66 0 1 0 C1.66 4.29 2.32 8.58 3 13 C2.01 12.67 1.02 12.34 0 12 C-1.1875 8.4375 -1.1875 8.4375 -2 5 C-1.67 5 -1.34 5 -1 5 C-0.67 3.35 -0.34 1.7 0 0 Z " fill="#5B98AE" transform="translate(145,571)"/>
<path d="M0 0 C0 4.10202215 -1.4911355 5.81306402 -4 9 C-6.75 10.375 -6.75 10.375 -9 11 C-7.59155282 7.78475695 -5.89655214 5.67816132 -3.375 3.25 C-2.74335938 2.63640625 -2.11171875 2.0228125 -1.4609375 1.390625 C-0.73777344 0.70226562 -0.73777344 0.70226562 0 0 Z " fill="#EFDE45" transform="translate(30,426)"/>
<path d="M0 0 C-2.64738916 1.4606285 -3.89448334 2 -7 2 C-7 2.66 -7 3.32 -7 4 C-9.70879335 5.35439668 -12.00933268 5.06501451 -15 5 C-12.62383533 2.62383533 -10.64650479 1.95931819 -7.5 0.8125 C-6.5203125 0.44769531 -5.540625 0.08289063 -4.53125 -0.29296875 C-2 -1 -2 -1 0 0 Z " fill="#2381C6" transform="translate(289,394)"/>
<path d="M0 0 C0 0.33 0 0.66 0 1 C-1.98 1 -3.96 1 -6 1 C-6 1.66 -6 2.32 -6 3 C-9.3 2.67 -12.6 2.34 -16 2 C-16 1.67 -16 1.34 -16 1 C-10.59255982 0.22750855 -5.46137814 -0.09752461 0 0 Z " fill="#2485C4" transform="translate(436,361)"/>
<path d="M0 0 C1.051875 -0.02126953 1.051875 -0.02126953 2.125 -0.04296875 C4 0.1875 4 0.1875 6 2.1875 C5.05125 2.31125 4.1025 2.435 3.125 2.5625 C-0.08667191 2.90437177 -0.08667191 2.90437177 -2 5.1875 C-3.33333333 3.85416667 -4.66666667 2.52083333 -6 1.1875 C-3.77109005 0.07304502 -2.46944894 0.02269714 0 0 Z " fill="#344248" transform="translate(313,496.8125)"/>
<path d="M0 0 C0.66 0.33 1.32 0.66 2 1 C-3.625 5.875 -3.625 5.875 -7 7 C-7.66 6.34 -8.32 5.68 -9 5 C-7.54735962 4.1361871 -6.0876837 3.28419546 -4.625 2.4375 C-3.40683594 1.72400391 -3.40683594 1.72400391 -2.1640625 0.99609375 C-1.44992188 0.66738281 -0.73578125 0.33867187 0 0 Z " fill="#1B7DBD" transform="translate(239,413)"/>
<path d="M0 0 C0.66 0.33 1.32 0.66 2 1 C-1.465 3.97 -1.465 3.97 -5 7 C-5.33 6.01 -5.66 5.02 -6 4 C-3.94766315 1.7522025 -2.99332739 0.9977758 0 0 Z " fill="#177ABF" transform="translate(191,466)"/>
<path d="M0 0 C2.31 0 4.62 0 7 0 C7 0.66 7 1.32 7 2 C8.32 2.66 9.64 3.32 11 4 C7.37 3.34 3.74 2.68 0 2 C0 1.34 0 0.68 0 0 Z " fill="#1A7CC1" transform="translate(699,394)"/>
<path d="M0 0 C0.66 0.33 1.32 0.66 2 1 C0.88121617 2.17262904 -0.24523051 3.33795138 -1.375 4.5 C-2.00148437 5.1496875 -2.62796875 5.799375 -3.2734375 6.46875 C-5 8 -5 8 -7 8 C-5.50902342 4.2047869 -3.24299151 2.38957269 0 0 Z " fill="#273036" transform="translate(212,499)"/>
<path d="M0 0 C0.66 0 1.32 0 2 0 C1.67 1.32 1.34 2.64 1 4 C-1.31 4.66 -3.62 5.32 -6 6 C-4 4 -2 2 0 0 Z " fill="#197DC0" transform="translate(194,441)"/>
<path d="M0 0 C-3.68734758 2.45823172 -6.69699971 3.01242616 -11 4 C-11 3.34 -11 2.68 -11 2 C-9.68 2 -8.36 2 -7 2 C-7 1.34 -7 0.68 -7 0 C-4.3333581 -1.33332095 -2.83319697 -0.67102033 0 0 Z " fill="#1C7EC1" transform="translate(304,409)"/>
<path d="M0 0 C2.97 0 5.94 0 9 0 C9 0.66 9 1.32 9 2 C5.7 2.33 2.4 2.66 -1 3 C-0.67 2.01 -0.34 1.02 0 0 Z " fill="#D5CD67" transform="translate(469,308)"/>
<path d="M0 0 C0.33 0.66 0.66 1.32 1 2 C-4.75 7 -4.75 7 -7 7 C-7 6.01 -7 5.02 -7 4 C-4.69 2.68 -2.38 1.36 0 0 Z " fill="#0E72B7" transform="translate(190,446)"/>
<path d="M0 0 C1.76462683 3.08809695 2 4.23312136 2 8 C1.34 8 0.68 8 0 8 C0 6.35 0 4.7 0 3 C-1.65 3 -3.3 3 -5 3 C-4.360625 2.690625 -3.72125 2.38125 -3.0625 2.0625 C-1.06389179 1.1654837 -1.06389179 1.1654837 0 0 Z " fill="#304049" transform="translate(713,496)"/>
<path d="M0 0 C1.98 0 3.96 0 6 0 C5.67 0.99 5.34 1.98 5 3 C3.02 3 1.04 3 -1 3 C-0.67 2.01 -0.34 1.02 0 0 Z " fill="#E4DB3C" transform="translate(463,308)"/>
<path d="M0 0 C0.99 0.33 1.98 0.66 3 1 C1.71937515 2.7074998 0.38232443 4.37373596 -1 6 C-1.66 6 -2.32 6 -3 6 C-1.125 1.125 -1.125 1.125 0 0 Z " fill="#167EBF" transform="translate(928,501)"/>
<path d="M0 0 C3.3 0.33 6.6 0.66 10 1 C10 1.99 10 2.98 10 4 C6.7 3.01 3.4 2.02 0 1 C0 0.67 0 0.34 0 0 Z " fill="#1E82C5" transform="translate(965,495)"/>
<path d="M0 0 C6.625 0.75 6.625 0.75 10 3 C6.18510326 4.46726798 3.70988378 3.43336419 0 2 C0 1.34 0 0.68 0 0 Z " fill="#2180BF" transform="translate(969,487)"/>
<path d="M0 0 C0.66 0.33 1.32 0.66 2 1 C-3.75 6 -3.75 6 -6 6 C-6 5.01 -6 4.02 -6 3 C-5.01 3 -4.02 3 -3 3 C-3 2.34 -3 1.68 -3 1 C-2.01 0.67 -1.02 0.34 0 0 Z " fill="#1A7DC0" transform="translate(199,460)"/>
<path d="M0 0 C4.67692308 1.47692308 4.67692308 1.47692308 6.3125 4.125 C6.539375 4.74375 6.76625 5.3625 7 6 C2.32307692 4.52307692 2.32307692 4.52307692 0.6875 1.875 C0.460625 1.25625 0.23375 0.6375 0 0 Z " fill="#1578BA" transform="translate(843,453)"/>
<path d="M0 0 C0.99 0.33 1.98 0.66 3 1 C2.01 1.33 1.02 1.66 0 2 C0 1.34 0 0.68 0 0 Z " fill="#267CB4" transform="translate(755,414)"/>
<path d="M0 0 C0.66 0.66 1.32 1.32 2 2 C1.34 2 0.68 2 0 2 C0 1.34 0 0.68 0 0 Z " fill="#7BA295" transform="translate(139,573)"/>
<path d="M0 0 C3 1 3 1 3 1 Z " fill="#2C7FB6" transform="translate(864,475)"/>
<path d="M0 0 C3 1 3 1 3 1 Z " fill="#2D81BD" transform="translate(720,403)"/>
<path d="M0 0 C3 1 3 1 3 1 Z " fill="#E0D34B" transform="translate(197,367)"/>
<path d="M0 0 C2 1 2 1 2 1 Z " fill="#D9CB57" transform="translate(193,671)"/>
<path d="M0 0 C2 1 2 1 2 1 Z " fill="#90A680" transform="translate(136,575)"/>
<path d="M0 0 C2 1 2 1 2 1 Z " fill="#42494E" transform="translate(680,534)"/>
<path d="M0 0 C2 1 2 1 2 1 Z " fill="#3E4245" transform="translate(672,534)"/>
<path d="M0 0 C2 1 2 1 2 1 Z " fill="#49565B" transform="translate(472,509)"/>
<path d="M0 0 C2 1 2 1 2 1 Z " fill="#4C7C8E" transform="translate(1001,491)"/>
<path d="M0 0 C2 1 2 1 2 1 Z " fill="#3288C1" transform="translate(941,488)"/>
<path d="M0 0 C2 1 2 1 2 1 Z " fill="#277DB3" transform="translate(795,430)"/>
<path d="" fill="#297FB7" transform="translate(0,0)"/>
<path d="M0 0 C2 1 2 1 2 1 Z " fill="#267CB7" transform="translate(730,405)"/>
<path d="M0 0 C2 1 2 1 2 1 Z " fill="#2C80B6" transform="translate(342,399)"/>
<path d="M0 0 C2 1 2 1 2 1 Z " fill="#247BB2" transform="translate(673,391)"/>
<path d="M0 0 C2 1 2 1 2 1 Z " fill="#E0D548" transform="translate(141,390)"/>
<path d="M0 0 C2 1 2 1 2 1 Z " fill="#247AB9" transform="translate(735,385)"/>
<path d="M0 0 C2 1 2 1 2 1 Z " fill="#237AB3" transform="translate(436,382)"/>
<path d="M0 0 C2 1 2 1 2 1 Z " fill="#2B7EB8" transform="translate(470,379)"/>
<path d="M0 0 C2 1 2 1 2 1 Z " fill="#297CAE" transform="translate(609,360)"/>
<path d="M0 0 C2 1 2 1 2 1 Z " fill="#538884" transform="translate(425,360)"/>
<path d="M0 0 C2 1 2 1 2 1 Z " fill="#E5D653" transform="translate(384,312)"/>
<path d="" fill="#6D6E69" transform="translate(0,0)"/>
<path d="" fill="#D7C850" transform="translate(0,0)"/>
<path d="" fill="#D9CC4C" transform="translate(0,0)"/>
<path d="" fill="#DFD05C" transform="translate(0,0)"/>
<path d="" fill="#E0D257" transform="translate(0,0)"/>
<path d="" fill="#E0D44F" transform="translate(0,0)"/>
<path d="" fill="#DCCC4F" transform="translate(0,0)"/>
<path d="" fill="#EBDA47" transform="translate(0,0)"/>
<path d="" fill="#EAD944" transform="translate(0,0)"/>
<path d="" fill="#EBD74A" transform="translate(0,0)"/>
<path d="" fill="#6B938A" transform="translate(0,0)"/>
<path d="" fill="#4C5D63" transform="translate(0,0)"/>
<path d="" fill="#47595C" transform="translate(0,0)"/>
<path d="" fill="#4C5C5B" transform="translate(0,0)"/>
<path d="" fill="#485656" transform="translate(0,0)"/>
<path d="" fill="#546561" transform="translate(0,0)"/>
<path d="" fill="#5B6D6C" transform="translate(0,0)"/>
<path d="" fill="#7EA499" transform="translate(0,0)"/>
<path d="" fill="#4C5053" transform="translate(0,0)"/>
<path d="" fill="#4C5557" transform="translate(0,0)"/>
<path d="" fill="#4D565C" transform="translate(0,0)"/>
<path d="" fill="#4B555D" transform="translate(0,0)"/>
<path d="" fill="#475A61" transform="translate(0,0)"/>
<path d="" fill="#596264" transform="translate(0,0)"/>
<path d="" fill="#485961" transform="translate(0,0)"/>
<path d="" fill="#465058" transform="translate(0,0)"/>
<path d="" fill="#EBDA47" transform="translate(0,0)"/>
<path d="" fill="#3089BD" transform="translate(0,0)"/>
<path d="" fill="#ECD950" transform="translate(0,0)"/>
<path d="" fill="#4B585D" transform="translate(0,0)"/>
<path d="" fill="#E9D43E" transform="translate(0,0)"/>
<path d="" fill="#2D7DB2" transform="translate(0,0)"/>
<path d="" fill="#3785B8" transform="translate(0,0)"/>
<path d="" fill="#3381B6" transform="translate(0,0)"/>
<path d="" fill="#EAD74E" transform="translate(0,0)"/>
<path d="" fill="#485052" transform="translate(0,0)"/>
<path d="" fill="#444D51" transform="translate(0,0)"/>
<path d="" fill="#495155" transform="translate(0,0)"/>
<path d="" fill="#42484F" transform="translate(0,0)"/>
<path d="" fill="#42484F" transform="translate(0,0)"/>
<path d="" fill="#3F454A" transform="translate(0,0)"/>
<path d="" fill="#40464B" transform="translate(0,0)"/>
<path d="" fill="#4A575C" transform="translate(0,0)"/>
<path d="" fill="#474B51" transform="translate(0,0)"/>
<path d="" fill="#42484D" transform="translate(0,0)"/>
<path d="" fill="#42484F" transform="translate(0,0)"/>
<path d="" fill="#424B4C" transform="translate(0,0)"/>
<path d="" fill="#4A5258" transform="translate(0,0)"/>
<path d="" fill="#415358" transform="translate(0,0)"/>
<path d="" fill="#485358" transform="translate(0,0)"/>
<path d="" fill="#3B484D" transform="translate(0,0)"/>
<path d="" fill="#404B50" transform="translate(0,0)"/>
<path d="" fill="#EDDC4B" transform="translate(0,0)"/>
<path d="" fill="#495C67" transform="translate(0,0)"/>
<path d="" fill="#405157" transform="translate(0,0)"/>
<path d="" fill="#47535A" transform="translate(0,0)"/>
<path d="" fill="#425555" transform="translate(0,0)"/>
<path d="" fill="#435662" transform="translate(0,0)"/>
<path d="" fill="#49585E" transform="translate(0,0)"/>
<path d="" fill="#3A7399" transform="translate(0,0)"/>
<path d="" fill="#48545C" transform="translate(0,0)"/>
<path d="" fill="#3E707F" transform="translate(0,0)"/>
<path d="" fill="#3C7A90" transform="translate(0,0)"/>
<path d="" fill="#317EAD" transform="translate(0,0)"/>
<path d="" fill="#63907A" transform="translate(0,0)"/>
<path d="" fill="#3383B8" transform="translate(0,0)"/>
<path d="" fill="#2F85BF" transform="translate(0,0)"/>
<path d="" fill="#4D6E83" transform="translate(0,0)"/>
<path d="" fill="#4181A7" transform="translate(0,0)"/>
<path d="" fill="#455864" transform="translate(0,0)"/>
<path d="" fill="#495C63" transform="translate(0,0)"/>
<path d="" fill="#39505B" transform="translate(0,0)"/>
<path d="" fill="#318AC0" transform="translate(0,0)"/>
<path d="" fill="#435B65" transform="translate(0,0)"/>
<path d="" fill="#435861" transform="translate(0,0)"/>
<path d="" fill="#4E5A61" transform="translate(0,0)"/>
<path d="" fill="#526F83" transform="translate(0,0)"/>
<path d="" fill="#337CB1" transform="translate(0,0)"/>
<path d="" fill="#495C65" transform="translate(0,0)"/>
<path d="" fill="#4E6370" transform="translate(0,0)"/>
<path d="" fill="#5382A2" transform="translate(0,0)"/>
<path d="" fill="#497990" transform="translate(0,0)"/>
<path d="" fill="#4B6F81" transform="translate(0,0)"/>
<path d="" fill="#4A7488" transform="translate(0,0)"/>
<path d="" fill="#527481" transform="translate(0,0)"/>
<path d="" fill="#2580AF" transform="translate(0,0)"/>
<path d="" fill="#3188BF" transform="translate(0,0)"/>
<path d="" fill="#297BB1" transform="translate(0,0)"/>
<path d="" fill="#3587BB" transform="translate(0,0)"/>
<path d="" fill="#3280B5" transform="translate(0,0)"/>
<path d="" fill="#2E86B4" transform="translate(0,0)"/>
<path d="" fill="#2D87BB" transform="translate(0,0)"/>
<path d="" fill="#2B80B5" transform="translate(0,0)"/>
<path d="" fill="#277EB5" transform="translate(0,0)"/>
<path d="" fill="#287AB2" transform="translate(0,0)"/>
<path d="" fill="#2A7FB2" transform="translate(0,0)"/>
<path d="" fill="#3587B0" transform="translate(0,0)"/>
<path d="" fill="#579086" transform="translate(0,0)"/>
<path d="" fill="#2D7CAF" transform="translate(0,0)"/>
<path d="" fill="#2682B5" transform="translate(0,0)"/>
<path d="" fill="#2275B2" transform="translate(0,0)"/>
<path d="" fill="#2D82B7" transform="translate(0,0)"/>
<path d="" fill="#4B8483" transform="translate(0,0)"/>
<path d="" fill="#308AAC" transform="translate(0,0)"/>
<path d="" fill="#3988AD" transform="translate(0,0)"/>
<path d="" fill="#52887F" transform="translate(0,0)"/>
<path d="" fill="#358EB8" transform="translate(0,0)"/>
<path d="" fill="#287AAE" transform="translate(0,0)"/>
<path d="" fill="#EBD940" transform="translate(0,0)"/>
<path d="" fill="#1E74AD" transform="translate(0,0)"/>
<path d="" fill="#ECDA4A" transform="translate(0,0)"/>
<path d="" fill="#2A7EB4" transform="translate(0,0)"/>
<path d="" fill="#2E84BE" transform="translate(0,0)"/>
<path d="" fill="#3085AA" transform="translate(0,0)"/>
<path d="" fill="#E7D645" transform="translate(0,0)"/>
<path d="" fill="#3989B2" transform="translate(0,0)"/>
<path d="" fill="#5B907E" transform="translate(0,0)"/>
<path d="" fill="#508581" transform="translate(0,0)"/>
<path d="" fill="#297DB3" transform="translate(0,0)"/>
<path d="" fill="#2274AA" transform="translate(0,0)"/>
<path d="" fill="#2A81B8" transform="translate(0,0)"/>
<path d="" fill="#2E83BA" transform="translate(0,0)"/>
<path d="" fill="#4391B6" transform="translate(0,0)"/>
<path d="" fill="#52887D" transform="translate(0,0)"/>
<path d="" fill="#267CB3" transform="translate(0,0)"/>
<path d="" fill="#267AB4" transform="translate(0,0)"/>
<path d="" fill="#347FB3" transform="translate(0,0)"/>
<path d="" fill="#5C8B81" transform="translate(0,0)"/>
<path d="" fill="#2B80B5" transform="translate(0,0)"/>
<path d="" fill="#287FB6" transform="translate(0,0)"/>
<path d="" fill="#297CB7" transform="translate(0,0)"/>
<path d="" fill="#EEDA46" transform="translate(0,0)"/>
<path d="" fill="#EAD848" transform="translate(0,0)"/>
<path d="" fill="#267AB4" transform="translate(0,0)"/>
<path d="" fill="#2E83BA" transform="translate(0,0)"/>
<path d="" fill="#478AB1" transform="translate(0,0)"/>
<path d="" fill="#588D7B" transform="translate(0,0)"/>
<path d="" fill="#5D8B7B" transform="translate(0,0)"/>
<path d="" fill="#E6D446" transform="translate(0,0)"/>
<path d="" fill="#2579B3" transform="translate(0,0)"/>
<path d="" fill="#2579B3" transform="translate(0,0)"/>
<path d="" fill="#267CB5" transform="translate(0,0)"/>
<path d="" fill="#2A84C0" transform="translate(0,0)"/>
<path d="" fill="#2E81B2" transform="translate(0,0)"/>
<path d="" fill="#428AA8" transform="translate(0,0)"/>
<path d="" fill="#468AA5" transform="translate(0,0)"/>
<path d="" fill="#277DB7" transform="translate(0,0)"/>
<path d="" fill="#58877C" transform="translate(0,0)"/>
<path d="" fill="#5F8C82" transform="translate(0,0)"/>
<path d="" fill="#EBD748" transform="translate(0,0)"/>
<path d="" fill="#237AB3" transform="translate(0,0)"/>
<path d="" fill="#2479AC" transform="translate(0,0)"/>
<path d="" fill="#257BB4" transform="translate(0,0)"/>
<path d="" fill="#1F73AD" transform="translate(0,0)"/>
<path d="" fill="#2076B0" transform="translate(0,0)"/>
<path d="" fill="#E5D950" transform="translate(0,0)"/>
<path d="" fill="#277DB9" transform="translate(0,0)"/>
<path d="" fill="#448CAD" transform="translate(0,0)"/>
<path d="" fill="#448CAF" transform="translate(0,0)"/>
<path d="" fill="#267CB7" transform="translate(0,0)"/>
<path d="" fill="#658E80" transform="translate(0,0)"/>
<path d="" fill="#E9DA49" transform="translate(0,0)"/>
<path d="" fill="#277EB3" transform="translate(0,0)"/>
<path d="" fill="#217AB0" transform="translate(0,0)"/>
<path d="" fill="#2079AF" transform="translate(0,0)"/>
<path d="" fill="#247CB9" transform="translate(0,0)"/>
<path d="" fill="#2177B1" transform="translate(0,0)"/>
<path d="" fill="#257BB2" transform="translate(0,0)"/>
<path d="" fill="#2A7EB8" transform="translate(0,0)"/>
<path d="" fill="#297DB5" transform="translate(0,0)"/>
<path d="" fill="#277EBC" transform="translate(0,0)"/>
<path d="" fill="#237DB9" transform="translate(0,0)"/>
<path d="" fill="#2681BB" transform="translate(0,0)"/>
<path d="" fill="#237BB6" transform="translate(0,0)"/>
<path d="" fill="#257EB7" transform="translate(0,0)"/>
<path d="" fill="#247DB5" transform="translate(0,0)"/>
<path d="" fill="#2074AE" transform="translate(0,0)"/>
<path d="" fill="#1F75AE" transform="translate(0,0)"/>
<path d="" fill="#267AB2" transform="translate(0,0)"/>
<path d="" fill="#267AB4" transform="translate(0,0)"/>
<path d="" fill="#267CB5" transform="translate(0,0)"/>
<path d="" fill="#EEDA46" transform="translate(0,0)"/>
<path d="" fill="#5B887B" transform="translate(0,0)"/>
<path d="" fill="#E2D757" transform="translate(0,0)"/>
<path d="" fill="#E2D757" transform="translate(0,0)"/>
<path d="" fill="#2179B6" transform="translate(0,0)"/>
<path d="" fill="#2276AE" transform="translate(0,0)"/>
<path d="" fill="#5B8977" transform="translate(0,0)"/>
<path d="" fill="#E1D24A" transform="translate(0,0)"/>
<path d="" fill="#4E8EA6" transform="translate(0,0)"/>
<path d="" fill="#458DAE" transform="translate(0,0)"/>
<path d="" fill="#247DB3" transform="translate(0,0)"/>
<path d="" fill="#2E81B2" transform="translate(0,0)"/>
<path d="" fill="#62907C" transform="translate(0,0)"/>
<path d="" fill="#E6D448" transform="translate(0,0)"/>
<path d="" fill="#E3D74C" transform="translate(0,0)"/>
<path d="" fill="#498FB0" transform="translate(0,0)"/>
<path d="" fill="#2D7DB2" transform="translate(0,0)"/>
<path d="" fill="#2E7FB1" transform="translate(0,0)"/>
<path d="" fill="#3A89B9" transform="translate(0,0)"/>
<path d="" fill="#E2D958" transform="translate(0,0)"/>
<path d="" fill="#E2D853" transform="translate(0,0)"/>
<path d="" fill="#E5D24B" transform="translate(0,0)"/>
<path d="" fill="#DDD252" transform="translate(0,0)"/>
<path d="" fill="#DDCF52" transform="translate(0,0)"/>
<path d="" fill="#E1D454" transform="translate(0,0)"/>
<path d="" fill="#E4D659" transform="translate(0,0)"/>
<path d="" fill="#E5D854" transform="translate(0,0)"/>
<path d="" fill="#DFD24E" transform="translate(0,0)"/>
<path d="" fill="#E0D552" transform="translate(0,0)"/>
<path d="" fill="#BEBF6F" transform="translate(0,0)"/>
<path d="" fill="#C3C580" transform="translate(0,0)"/>
<path d="" fill="#C9C771" transform="translate(0,0)"/>
</svg>
